<svg xmlns="http://www.w3.org/2000/svg" viewBox="0 0 64 64" fill="none">
  <rect width="64" height="64" rx="16" fill="#186C74"/>
  <path d="M18 15.5C18 13.567 19.567 12 21.5 12H30C31.933 12 33.5 13.567 33.5 15.5V48.5C33.5 50.433 31.933 52 30 52H21.5C19.567 52 18 50.433 18 48.5V15.5Z" fill="#FFF9EE"/>
  <path d="M33.5 15.5C33.5 13.567 35.067 12 37 12H42.5C44.433 12 46 13.567 46 15.5V29L41.75 26.25L37.5 29V48.5C37.5 50.433 35.933 52 34 52H33.5V15.5Z" fill="#DFF1EF"/>
  <path d="M23 20H28.5" stroke="#186C74" stroke-width="2.5" stroke-linecap="round"/>
  <path d="M23 26H28.5" stroke="#186C74" stroke-width="2.5" stroke-linecap="round" opacity=".72"/>
  <path d="M23 32H28.5" stroke="#186C74" stroke-width="2.5" stroke-linecap="round" opacity=".52"/>
  <circle cx="48.5" cy="47.5" r="4.5" fill="#F1B84F"/>
</svg>
