<svg xmlns="http://www.w3.org/2000/svg" viewBox="0 0 64 64" fill="none">
  <rect width="64" height="64" rx="13" fill="#DFF1EF"/>
  <path d="M14 17.5C14 15.6 15.6 14 17.5 14H26C29.3 14 32 16.7 32 20V50C32 47.8 29.8 46 27.5 46H17.5C15.6 46 14 44.4 14 42.5V17.5Z" stroke="#186C74" stroke-width="4" stroke-linecap="round" stroke-linejoin="round"/>
  <path d="M50 17.5C50 15.6 48.4 14 46.5 14H38C34.7 14 32 16.7 32 20V50C32 47.8 34.2 46 36.5 46H46.5C48.4 46 50 44.4 50 42.5V17.5Z" stroke="#186C74" stroke-width="4" stroke-linecap="round" stroke-linejoin="round"/>
</svg>
