<svg width="132" height="112" viewBox="0 0 132 112" fill="none" xmlns="http://www.w3.org/2000/svg">
  <rect x="23" y="79" width="68" height="12" rx="3" fill="#F2DDAE"/>
  <rect x="31" y="91" width="68" height="12" rx="3" fill="#E9C88B"/>
  <path d="M47 68h36l-5 35H52l-5-35Z" fill="#D9895B"/>
  <path d="M51 68h28l-3 9H54l-3-9Z" fill="#B76542"/>
  <path d="M65 70c-1-17 1-32 4-45" stroke="#2D7C5D" stroke-width="4" stroke-linecap="round"/>
  <path d="M68 42c11-14 23-17 34-15-4 13-15 21-34 15Z" fill="#64B987"/>
  <path d="M65 54c-15-11-20-23-18-36 14 4 23 16 18 36Z" fill="#77C99B"/>
  <path d="M69 57c12-9 24-10 34-4-8 10-19 14-34 4Z" fill="#8BD0A8"/>
  <circle cx="74" cy="17" r="4" fill="#F1B84F"/>
  <path d="M23 35c5-7 13-8 19-2" stroke="#ECD38F" stroke-width="3" stroke-linecap="round"/>
  <path d="M92 16c4-5 10-6 15-2" stroke="#ECD38F" stroke-width="3" stroke-linecap="round"/>
</svg>
